# xmcd
#
# Track frame offsets: 
#        150
#        22143
#        43337
#        59860
#        76263
#        94945
#        103335
#        124471
#        136566
#        150657
#        170748
#        197136
#
# Disc length: 2811 seconds
#
# Revision: 0
# Processed by: cddbd v1.5.2PL0 Copyright (c) Steve Scherf et al.
# Submitted via: ExactAudioCopy v0.95b4
#
DISCID=b20af90c
DTITLE=Have Gun, Will Travel - Postcards From The Friendly City
DYEAR=2009
DGENRE=Country
TTITLE0=Wolf in Shepherd's Clothes
TTITLE1=Sons and Daughters of the Gilded Age
TTITLE2=Salad Days
TTITLE3=Land of the Living
TTITLE4=Kerosene and Candlelight
TTITLE5=Maritime Rag
TTITLE6=Paperback
TTITLE7=Ship to Shore
TTITLE8=Rosie (A Belated Requiem)
TTITLE9=The Ballad of Asa Dalton
TTITLE10=Soles of Our Shoes
TTITLE11=That Ol' Death Rattle
EXTD=
EXTT0=
EXTT1=
EXTT2=
EXTT3=
EXTT4=
EXTT5=
EXTT6=
EXTT7=
EXTT8=
EXTT9=
EXTT10=
EXTT11=
PLAYORDER=
